<svg width="12" height="13" viewBox="0 0 12 13" fill="none" xmlns="http://www.w3.org/2000/svg">
<path d="M10.929 2.30939V0.900147C10.8296 0.900147 10.701 0.900024 10.4198 0.900024L1.50957 0.900147C1.22836 0.900147 1.10415 0.900147 1.0004 0.900147V2.30939C1.06696 2.30939 1.22836 2.30954 1.50957 2.30954L10.4198 2.30939C10.701 2.30939 10.8542 2.30939 10.929 2.30939Z" fill="white" stroke="white" stroke-width="0.5" stroke-linecap="round" stroke-linejoin="round"/>
<path d="M10.9286 4.85284V3.4436H1.50917C1.22796 3.4436 1.08539 3.4436 1 3.4436V4.85284C1.08139 4.85284 1.22796 4.85284 1.50917 4.85284H10.9286Z" fill="white" stroke="white" stroke-width="0.5" stroke-linecap="round" stroke-linejoin="round"/>
<path d="M10.9997 12.2812V6.07317C10.9997 6.02294 10.7006 6.04004 10.4194 6.04004H1.50917C1.22796 6.04004 1 6.02297 1 6.07317V12.1907C1.08656 12.1408 5.71905 9.66471 5.97362 9.54598C6.13222 9.63739 10.1712 11.8033 11 12.281L10.9997 12.2812Z" fill="white" stroke="white" stroke-width="0.5" stroke-linecap="round" stroke-linejoin="round"/>
</svg>
